PathFileType	4	(X/Y/Z)	17_1_52_p1_0-291_filt_butterworth.trc
DataRate	CameraRate	NumFrames	NumMarkers	Units	OrigDataRate	OrigDataStartFrame	OrigNumFrames
60.0	60.0	5	27	m	60.0	254	291
Frame#	Time	RHip			RKnee			RAnkle			RBigToe			RSmallToe			RHeel			LHip			LKnee			LAnkle			LBigToe			LSmallToe			LHeel			Neck			Head			Nose			RShoulder			RElbow			RWrist			RThumb			RIndex			RPinky			LShoulder			LElbow			LWrist			LThumb			LIndex			LPinky			
		X1	Y1	Z1	X2	Y2	Z2	X3	Y3	Z3	X4	Y4	Z4	X5	Y5	Z5	X6	Y6	Z6	X7	Y7	Z7	X8	Y8	Z8	X9	Y9	Z9	X10	Y10	Z10	X11	Y11	Z11	X12	Y12	Z12	X13	Y13	Z13	X14	Y14	Z14	X15	Y15	Z15	X16	Y16	Z16	X17	Y17	Z17	X18	Y18	Z18	X19	Y19	Z19	X20	Y20	Z20	X21	Y21	Z21	X22	Y22	Z22	X23	Y23	Z23	X24	Y24	Z24	X25	Y25	Z25	X26	Y26	Z26	X27	Y27	Z27	
254	4.233333333333333	0.2370663040202713	0.5498823048694039	0.8415910698431658	0.22353284242607294	0.5522202862038307	1.2316655546983624	0.21689038052597054	0.7415743030481123	1.7052814464423838	0.2299767976369415	0.49271078654379064	1.7081634092883313	0.27821429142885445	0.5684601818975981	1.7327049948857727	0.20553883443559734	0.7980245126317917	1.7482113098628662	0.02814011823646862	0.554857823023496	0.8608643905508198	0.034282076530825704	0.6096982253647969	1.2629039889919855	0.04444503638725265	0.6739950880778434	1.6962522051094495	0.08293194455041253	0.4713251181037476	1.7168900121582487	0.022359422671730318	0.5311262118557484	1.7281080441384784	0.06088535195502913	0.7755053987075442	1.7710761871112677	0.09351740623346926	0.3944848159858598	0.2214910786229179	0.07686817269372129	0.2718705733737807	-0.020206594416195378	0.09131621400800946	0.2226428653147091	0.12472662958560901	0.269315630751728	0.40763715245190124	0.3008381806646008	0.35324943322758995	0.5111861908363432	0.5772382240599285	0.4153129205149112	0.4942306590375741	0.8307675847919175	0.39984786454286086	0.4689540135960234	0.9558246316102387	0.413224819793121	0.49629447135959803	0.9848853348519795	0.41305978068126115	0.5189848894512529	0.9705874260501277	-0.06074240923320514	0.4416026840876533	0.3277606225671219	-0.08962868482615167	0.492164117452644	0.6082032360439003	-0.12569020384699955	0.4148179671415674	0.8705010712964518	-0.11076254591233826	0.4137557070390835	0.990424549930875	-0.1241870824694253	0.3993374657780841	1.0076091682126491	-0.14305325232242994	0.45293876037107383	1.0134628817108768
255	4.25	0.23703444923037145	0.5498347628960981	0.8417603929581831	0.2237241536097574	0.5528614479315098	1.2319399811979954	0.21707901951585978	0.7434039740823197	1.7065140249371726	0.23119243995382543	0.49897618388177256	1.7122073614756415	0.27887590015057623	0.57236197513597	1.734313665263801	0.20605907126807033	0.7981079867437074	1.748381112578404	0.028260408598346855	0.5546680072146267	0.8621289760459614	0.0342057975793539	0.609923913093276	1.2628583934006572	0.044383169214732586	0.6736941734366768	1.692763196284924	0.08288173103442083	0.4734288677199501	1.7164074810907466	0.022226534373283792	0.531139517829909	1.728087059411696	0.060823054891646196	0.7757618812598532	1.7706793879378688	0.09539783729874952	0.3977782457892621	0.21909681666590708	0.08466034754175358	0.28382693288482247	-0.02341267520335315	0.09463544115171778	0.22483614257422652	0.12256058573824209	0.2725464085096403	0.4197941907159165	0.3009534508453098	0.35906376150566094	0.5047644913226568	0.5811864544275317	0.4173325030631643	0.4914813814485399	0.8324383507772877	0.40027414936131483	0.4579388453373392	0.956992192688642	0.4148993388228506	0.4938260669912588	0.987971570831679	0.41634323300346743	0.5115327214242061	0.9720939081244144	-0.05682898887494056	0.4336450582659965	0.3237202789420651	-0.08925304207204031	0.4878940102012579	0.6056409979100146	-0.12457856961983413	0.40770477369704855	0.869832791836116	-0.11171111245808915	0.4084448092228253	0.9895805544428049	-0.12581194878943208	0.38384342776101305	1.0038436834225062	-0.13861694846363806	0.4379340732818202	1.0081460911848275
256	4.266666666666667	0.23704849755568272	0.549852026077184	0.8419090311646376	0.22393332919272704	0.5536396508547552	1.2325684895793514	0.21772564393196175	0.7474489987935379	1.70725885086203	0.23238600696465664	0.505436573463838	1.7157737618411966	0.2792723306464681	0.575711300705701	1.7349643444571683	0.206426004014357	0.7978973375138728	1.7477702109931688	0.028374113690406363	0.5547744499637369	0.8627180400398091	0.03416879802853443	0.610088341096707	1.2627881281793807	0.04539279056648597	0.6742560504372506	1.688452165734739	0.08290427798343857	0.4758176629582662	1.7167796719508288	0.022238099516498085	0.5311909939582022	1.7277710418279644	0.060681148759842374	0.7754230384901208	1.7689946551077533	0.0973938067121386	0.4018446677924241	0.21727401893947673	0.09356918812943202	0.2944275102548653	-0.026482110075138607	0.09855439207883995	0.227926738989164	0.12059934469182688	0.2750822549458201	0.42952176870118886	0.30103820778074064	0.3637305101687704	0.49618350621695984	0.5840631883042801	0.4181252397265939	0.49084197628256887	0.8331949426364134	0.3990973045938415	0.44991155413294526	0.9590482112430121	0.41600875717829655	0.48849270840195275	0.9909167773499452	0.4172383375690211	0.5112180856336077	0.9747689469431268	-0.05439565317856489	0.42869222829004094	0.3209200320823553	-0.08777900933543824	0.48095223219264216	0.6028160187149735	-0.12344977176187184	0.40184702269522277	0.8693179128326561	-0.11311558670053506	0.40351230646671876	0.987581734495981	-0.1286664578279801	0.3663162633157552	1.0003195295268064	-0.13505108802170546	0.42146460394024465	1.00233154914764
257	4.283333333333333	0.23712122092454463	0.5499668437924966	0.8420285142088597	0.2240405668290232	0.554266516082493	1.2336830594727148	0.21845763055896938	0.7524845960309707	1.7068686295680513	0.2334605819341925	0.5116851907562697	1.7188320049863877	0.279462105866228	0.5777527215805177	1.7343697961605422	0.20616556244308606	0.797241299324374	1.7461140951929697	0.027725779368294397	0.5560429204628258	0.8627320391898401	0.03415787530305119	0.6101606763574541	1.2627033067460296	0.046493467050196954	0.6750386846032235	1.6838629593104915	0.08301704500394844	0.47998616288410045	1.7186165585871762	0.022597612997224764	0.5316017984282863	1.7269399438395552	0.06034808403495934	0.7748106082430771	1.7661358185816067	0.09951221712327872	0.40487679137911936	0.21622267275144028	0.10224224178910676	0.2999036062125734	-0.028975196201660176	0.1032519245202682	0.2314607283042526	0.11859890125545476	0.2766776954079349	0.43664811924098523	0.3010223441329222	0.3668888860515226	0.4884204252856894	0.5851983763940896	0.41820185340745764	0.49038851060499955	0.8338436668378566	0.39745138847941963	0.4444318519267493	0.9622093984450124	0.4157501378343056	0.48050633114835045	0.9937627280635979	0.4173026900493536	0.5131032421986288	0.9768934851332618	-0.05361333915689475	0.4272533951870088	0.31939873534086205	-0.08584404838278542	0.4713541569131323	0.6000512937937004	-0.1227973204819654	0.39653793811436033	0.8681519055968929	-0.11237273245070346	0.39375307007202287	0.9838477299732856	-0.13123250936795972	0.3463965446914347	0.9966931438243416	-0.1326131075502927	0.404900609188102	0.9964002116904687
258	4.3	0.23718470167418643	0.5502592766550846	0.8421140597061183	0.22405449688570306	0.5546159175056784	1.2350269096603945	0.2187275777473196	0.7559888587812681	1.7051441405987684	0.23432435779923175	0.5170215145850371	1.7212786561471767	0.28016368406328596	0.5788653571359053	1.7333971977375686	0.2054097388352032	0.7963265362577278	1.7438655512273047	0.02588057928641956	0.5591662211746903	0.8623040615567349	0.03417463814287558	0.6101730109542896	1.2626290548587469	0.047118634003628077	0.6755236649585064	1.6794746675712868	0.08323685130343159	0.48633345406209905	1.7209357733588315	0.023492331621980875	0.5325656535771232	1.7258188011685223	0.05997807423659808	0.7744079155969629	1.7633232636498186	0.10161847213118494	0.4062072800222798	0.21540980171779384	0.10929157461924519	0.3009032478816372	-0.030782340254840994	0.10850188921688189	0.23616680360287204	0.11657834877572618	0.2775206143075545	0.44156697306631854	0.3008977732756575	0.36802302771970286	0.4819390717639244	0.5849285853230668	0.41787293951079646	0.4864274080763948	0.8350699403885128	0.396103626168389	0.4398137728055182	0.9665801982008669	0.41403705572917465	0.4698108378099558	0.9960622129817354	0.4177010958721084	0.5137372814025534	0.9790532748899224	-0.05366118273705677	0.427587563397534	0.3188209868448436	-0.08450997073668812	0.4619288836485016	0.5980329481407853	-0.12186574076802925	0.3895203912115924	0.864927532663185	-0.10744315731825738	0.37371493356213525	0.9774607592338452	-0.13167331592957854	0.3256177368738574	0.9926413527742658	-0.13120508022003347	0.38863177975312324	0.990689261327723
